<?xml version="1.0" standalone="no"?>
<!DOCTYPE svg PUBLIC "-//W3C//DTD SVG 20010904//EN"
 "http://www.w3.org/TR/2001/REC-SVG-20010904/DTD/svg10.dtd">
<svg version="1.0" xmlns="http://www.w3.org/2000/svg"
 width="512.000000pt" height="512.000000pt" viewBox="0 0 512.000000 512.000000"
 preserveAspectRatio="xMidYMid meet">
<metadata>
Created by potrace 1.14, written by Peter Selinger 2001-2017
</metadata>
<g transform="translate(0.000000,512.000000) scale(0.100000,-0.100000)"
fill="#000000" stroke="none">
<path d="M574 4306 c-38 -17 -82 -72 -90 -114 -17 -87 -53 -46 769 -869 l762
-763 -762 -762 c-675 -676 -762 -767 -768 -800 -12 -63 3 -109 46 -150 59 -56
118 -62 212 -19 24 11 68 30 98 41 30 12 68 28 84 35 17 7 98 41 180 75 83 34
174 73 203 86 29 13 55 24 58 24 3 0 20 6 37 14 18 8 61 26 97 41 36 14 74 30
85 35 65 29 115 50 119 50 3 0 35 13 71 30 36 16 70 30 76 30 6 0 23 7 37 15
15 8 95 42 177 76 83 34 166 69 185 77 19 9 37 16 40 16 3 1 26 10 50 20 102
44 129 55 215 90 50 21 104 43 120 50 17 8 55 24 85 36 30 12 69 28 85 35 17
7 71 30 120 51 50 20 120 49 156 65 82 35 121 51 134 55 14 4 292 121 332 139
17 8 34 15 37 15 3 0 25 9 49 19 23 11 110 47 192 81 83 34 169 71 192 81 23
11 44 19 47 19 3 0 29 11 58 24 30 14 78 34 108 46 30 11 69 27 85 34 17 8 71
30 120 50 132 54 179 115 161 212 -16 84 74 43 -1816 829 -960 400 -1758 733
-1775 740 -186 81 -379 155 -406 155 -19 -1 -48 -7 -65 -14z m2224 -1218 c688
-287 1252 -525 1252 -529 0 -5 -203 -94 -235 -103 -5 -1 -28 -10 -50 -20 -73
-31 -190 -81 -195 -81 -3 -1 -23 -9 -45 -19 -22 -10 -62 -27 -90 -38 -67 -26
-199 -82 -255 -106 -14 -6 -97 -41 -185 -77 -88 -36 -169 -70 -180 -75 -37
-16 -89 -39 -155 -65 -36 -14 -78 -32 -95 -40 -16 -7 -163 -68 -325 -135 -162
-67 -319 -133 -348 -146 -29 -13 -55 -24 -58 -24 -3 0 -20 -6 -37 -14 -18 -8
-88 -38 -157 -66 -69 -28 -145 -60 -170 -72 -25 -11 -49 -21 -55 -23 -12 -2
-64 -23 -79 -32 -6 -3 225 231 514 521 289 289 530 538 537 553 15 35 16 83 3
120 -6 15 -247 265 -538 556 l-527 527 110 -45 c61 -25 674 -280 1363 -567z"/>
</g>
</svg>
