<svg width="20" height="20" viewBox="0 0 20 20" fill="none" xmlns="http://www.w3.org/2000/svg">
<path opacity="0.5" d="M6.00002 18.9937C5.99656 19.546 6.44147 19.9965 6.99374 20C7.54602 20.0034 7.99652 19.5585 7.99998 19.0063L6.00002 18.9937ZM7.68746 15.5625L7.39555 14.6061C7.37233 14.6131 7.34936 14.6211 7.32671 14.6298L7.68746 15.5625ZM12.4997 14.875L12.5042 13.8749L12.4925 13.875L12.4997 14.875ZM17.3119 15.5625L17.0199 16.519L17.0279 16.5213L17.3119 15.5625ZM16.9994 18.9952C16.9967 19.5475 17.4423 19.9973 17.9946 20C18.5468 20.0026 18.9967 19.5571 18.9993 19.0048L16.9994 18.9952ZM14.2495 10.75C14.2495 11.7166 13.466 12.5 12.4997 12.5V14.5C14.5707 14.5 16.2495 12.821 16.2495 10.75H14.2495ZM12.4997 12.5C11.5333 12.5 10.7498 11.7166 10.7498 10.75H8.74984C8.74984 12.821 10.4286 14.5 12.4997 14.5V12.5ZM10.7498 10.75C10.7498 9.78345 11.5333 9 12.4997 9V7C10.4286 7 8.74984 8.67899 8.74984 10.75H10.7498ZM12.4997 9C13.466 9 14.2495 9.78345 14.2495 10.75H16.2495C16.2495 8.67899 14.5707 7 12.4997 7V9ZM7.99998 19.0063C8.00771 17.7713 8.04989 17.0533 8.13314 16.6318C8.21664 16.2089 8.2759 16.4071 8.0482 16.4952L7.32671 14.6298C6.57262 14.9215 6.29583 15.6123 6.17103 16.2443C6.04599 16.8775 6.00764 17.7765 6.00002 18.9937L7.99998 19.0063ZM7.97936 16.5189C9.57942 16.0306 10.5343 15.8892 12.5069 15.875L12.4925 13.875C10.3531 13.8904 9.20371 14.0542 7.39555 14.6061L7.97936 16.5189ZM12.4951 15.875C14.4821 15.884 15.4311 16.0339 17.0199 16.5189L17.6039 14.6061C15.8126 14.0592 14.6684 13.8849 12.5042 13.875L12.4951 15.875ZM17.0279 16.5213C16.7459 16.4378 16.8017 16.1818 16.8866 16.6171C16.969 17.0394 17.0053 17.7631 16.9994 18.9952L18.9993 19.0048C19.0052 17.7909 18.9752 16.878 18.8496 16.2342C18.7266 15.6033 18.4328 14.8516 17.5959 14.6037L17.0279 16.5213Z" fill="#298CFF"/>
<path d="M8 1V11M3 6H13" stroke="#298CFF" stroke-width="2" stroke-linecap="round" stroke-linejoin="round"/>
</svg>
